<?xml version="1.0" encoding="utf-8" standalone="no"?>
<!DOCTYPE svg PUBLIC "-//W3C//DTD SVG 1.1//EN"
  "http://www.w3.org/Graphics/SVG/1.1/DTD/svg11.dtd">
<svg xmlns:xlink="http://www.w3.org/1999/xlink" width="1080pt" height="288pt" viewBox="0 0 1080 288" xmlns="http://www.w3.org/2000/svg" version="1.1">
 <metadata>
  <rdf:RDF xmlns:dc="http://purl.org/dc/elements/1.1/" xmlns:cc="http://creativecommons.org/ns#" xmlns:rdf="http://www.w3.org/1999/02/22-rdf-syntax-ns#">
   <cc:Work>
    <dc:type rdf:resource="http://purl.org/dc/dcmitype/StillImage"/>
    <dc:date>2025-10-02T18:06:33.352477</dc:date>
    <dc:format>image/svg+xml</dc:format>
    <dc:creator>
     <cc:Agent>
      <dc:title>Matplotlib v3.10.0, https://matplotlib.org/</dc:title>
     </cc:Agent>
    </dc:creator>
   </cc:Work>
  </rdf:RDF>
 </metadata>
 <defs>
  <style type="text/css">*{stroke-linejoin: round; stroke-linecap: butt}</style>
 </defs>
 <g id="figure_1">
  <g id="patch_1">
   <path d="M 0 288 
L 1080 288 
L 1080 0 
L 0 0 
z
" style="fill: #ffffff"/>
  </g>
  <g id="axes_1">
   <g id="patch_2">
    <path d="M 34.7 255.46 
L 1067.04 255.46 
L 1067.04 39.6 
L 34.7 39.6 
z
" style="fill: #ffffff"/>
   </g>
   <g id="matplotlib.axis_1">
    <g id="xtick_1">
     <g id="line2d_1">
      <defs>
       <path id="m9a4255db25" d="M 0 0 
L 0 6 
" style="stroke: #262626; stroke-width: 1.25"/>
      </defs>
      <g>
       <use xlink:href="#m9a4255db25" x="550.87" y="255.46" style="fill: #262626; stroke: #262626; stroke-width: 1.25"/>
      </g>
     </g>
     <g id="text_1">
      <!-- Income -->
      <g style="fill: #262626" transform="translate(532.835156 272.833594) scale(0.11 -0.11)">
       <defs>
        <path id="ArialMT-49" d="M 597 0 
L 597 4581 
L 1203 4581 
L 1203 0 
L 597 0 
z
" transform="scale(0.015625)"/>
        <path id="ArialMT-6e" d="M 422 0 
L 422 3319 
L 928 3319 
L 928 2847 
Q 1294 3394 1984 3394 
Q 2284 3394 2536 3286 
Q 2788 3178 2913 3003 
Q 3038 2828 3088 2588 
Q 3119 2431 3119 2041 
L 3119 0 
L 2556 0 
L 2556 2019 
Q 2556 2363 2490 2533 
Q 2425 2703 2258 2804 
Q 2091 2906 1866 2906 
Q 1506 2906 1245 2678 
Q 984 2450 984 1813 
L 984 0 
L 422 0 
z
" transform="scale(0.015625)"/>
        <path id="ArialMT-63" d="M 2588 1216 
L 3141 1144 
Q 3050 572 2676 248 
Q 2303 -75 1759 -75 
Q 1078 -75 664 370 
Q 250 816 250 1647 
Q 250 2184 428 2587 
Q 606 2991 970 3192 
Q 1334 3394 1763 3394 
Q 2303 3394 2647 3120 
Q 2991 2847 3088 2344 
L 2541 2259 
Q 2463 2594 2264 2762 
Q 2066 2931 1784 2931 
Q 1359 2931 1093 2626 
Q 828 2322 828 1663 
Q 828 994 1084 691 
Q 1341 388 1753 388 
Q 2084 388 2306 591 
Q 2528 794 2588 1216 
z
" transform="scale(0.015625)"/>
        <path id="ArialMT-6f" d="M 213 1659 
Q 213 2581 725 3025 
Q 1153 3394 1769 3394 
Q 2453 3394 2887 2945 
Q 3322 2497 3322 1706 
Q 3322 1066 3130 698 
Q 2938 331 2570 128 
Q 2203 -75 1769 -75 
Q 1072 -75 642 372 
Q 213 819 213 1659 
z
M 791 1659 
Q 791 1022 1069 705 
Q 1347 388 1769 388 
Q 2188 388 2466 706 
Q 2744 1025 2744 1678 
Q 2744 2294 2464 2611 
Q 2184 2928 1769 2928 
Q 1347 2928 1069 2612 
Q 791 2297 791 1659 
z
" transform="scale(0.015625)"/>
        <path id="ArialMT-6d" d="M 422 0 
L 422 3319 
L 925 3319 
L 925 2853 
Q 1081 3097 1340 3245 
Q 1600 3394 1931 3394 
Q 2300 3394 2536 3241 
Q 2772 3088 2869 2813 
Q 3263 3394 3894 3394 
Q 4388 3394 4653 3120 
Q 4919 2847 4919 2278 
L 4919 0 
L 4359 0 
L 4359 2091 
Q 4359 2428 4304 2576 
Q 4250 2725 4106 2815 
Q 3963 2906 3769 2906 
Q 3419 2906 3187 2673 
Q 2956 2441 2956 1928 
L 2956 0 
L 2394 0 
L 2394 2156 
Q 2394 2531 2256 2718 
Q 2119 2906 1806 2906 
Q 1569 2906 1367 2781 
Q 1166 2656 1075 2415 
Q 984 2175 984 1722 
L 984 0 
L 422 0 
z
" transform="scale(0.015625)"/>
        <path id="ArialMT-65" d="M 2694 1069 
L 3275 997 
Q 3138 488 2766 206 
Q 2394 -75 1816 -75 
Q 1088 -75 661 373 
Q 234 822 234 1631 
Q 234 2469 665 2931 
Q 1097 3394 1784 3394 
Q 2450 3394 2872 2941 
Q 3294 2488 3294 1666 
Q 3294 1616 3291 1516 
L 816 1516 
Q 847 969 1125 678 
Q 1403 388 1819 388 
Q 2128 388 2347 550 
Q 2566 713 2694 1069 
z
M 847 1978 
L 2700 1978 
Q 2663 2397 2488 2606 
Q 2219 2931 1791 2931 
Q 1403 2931 1139 2672 
Q 875 2413 847 1978 
z
" transform="scale(0.015625)"/>
       </defs>
       <use xlink:href="#ArialMT-49"/>
       <use xlink:href="#ArialMT-6e" transform="translate(27.783203 0)"/>
       <use xlink:href="#ArialMT-63" transform="translate(83.398438 0)"/>
       <use xlink:href="#ArialMT-6f" transform="translate(133.398438 0)"/>
       <use xlink:href="#ArialMT-6d" transform="translate(189.013672 0)"/>
       <use xlink:href="#ArialMT-65" transform="translate(272.314453 0)"/>
      </g>
     </g>
    </g>
   </g>
   <g id="matplotlib.axis_2">
    <g id="ytick_1">
     <g id="line2d_2">
      <defs>
       <path id="mf24cca0db9" d="M 0 0 
L -6 0 
" style="stroke: #262626; stroke-width: 1.25"/>
      </defs>
      <g>
       <use xlink:href="#mf24cca0db9" x="34.7" y="228.124868" style="fill: #262626; stroke: #262626; stroke-width: 1.25"/>
      </g>
     </g>
     <g id="text_2">
      <!-- 0 -->
      <g style="fill: #262626" transform="translate(19.082969 232.061665) scale(0.11 -0.11)">
       <defs>
        <path id="ArialMT-30" d="M 266 2259 
Q 266 3072 433 3567 
Q 600 4063 929 4331 
Q 1259 4600 1759 4600 
Q 2128 4600 2406 4451 
Q 2684 4303 2865 4023 
Q 3047 3744 3150 3342 
Q 3253 2941 3253 2259 
Q 3253 1453 3087 958 
Q 2922 463 2592 192 
Q 2263 -78 1759 -78 
Q 1097 -78 719 397 
Q 266 969 266 2259 
z
M 844 2259 
Q 844 1131 1108 757 
Q 1372 384 1759 384 
Q 2147 384 2411 759 
Q 2675 1134 2675 2259 
Q 2675 3391 2411 3762 
Q 2147 4134 1753 4134 
Q 1366 4134 1134 3806 
Q 844 3388 844 2259 
z
" transform="scale(0.015625)"/>
       </defs>
       <use xlink:href="#ArialMT-30"/>
      </g>
     </g>
    </g>
    <g id="ytick_2">
     <g id="line2d_3">
      <g>
       <use xlink:href="#mf24cca0db9" x="34.7" y="192.146585" style="fill: #262626; stroke: #262626; stroke-width: 1.25"/>
      </g>
     </g>
     <g id="text_3">
      <!-- 5 -->
      <g style="fill: #262626" transform="translate(19.082969 196.083382) scale(0.11 -0.11)">
       <defs>
        <path id="ArialMT-35" d="M 266 1200 
L 856 1250 
Q 922 819 1161 601 
Q 1400 384 1738 384 
Q 2144 384 2425 690 
Q 2706 997 2706 1503 
Q 2706 1984 2436 2262 
Q 2166 2541 1728 2541 
Q 1456 2541 1237 2417 
Q 1019 2294 894 2097 
L 366 2166 
L 809 4519 
L 3088 4519 
L 3088 3981 
L 1259 3981 
L 1013 2750 
Q 1425 3038 1878 3038 
Q 2478 3038 2890 2622 
Q 3303 2206 3303 1553 
Q 3303 931 2941 478 
Q 2500 -78 1738 -78 
Q 1113 -78 717 272 
Q 322 622 266 1200 
z
" transform="scale(0.015625)"/>
       </defs>
       <use xlink:href="#ArialMT-35"/>
      </g>
     </g>
    </g>
    <g id="ytick_3">
     <g id="line2d_4">
      <g>
       <use xlink:href="#mf24cca0db9" x="34.7" y="156.168301" style="fill: #262626; stroke: #262626; stroke-width: 1.25"/>
      </g>
     </g>
     <g id="text_4">
      <!-- 10 -->
      <g style="fill: #262626" transform="translate(12.965938 160.105098) scale(0.11 -0.11)">
       <defs>
        <path id="ArialMT-31" d="M 2384 0 
L 1822 0 
L 1822 3584 
Q 1619 3391 1289 3197 
Q 959 3003 697 2906 
L 697 3450 
Q 1169 3672 1522 3987 
Q 1875 4303 2022 4600 
L 2384 4600 
L 2384 0 
z
" transform="scale(0.015625)"/>
       </defs>
       <use xlink:href="#ArialMT-31"/>
       <use xlink:href="#ArialMT-30" transform="translate(55.615234 0)"/>
      </g>
     </g>
    </g>
    <g id="ytick_4">
     <g id="line2d_5">
      <g>
       <use xlink:href="#mf24cca0db9" x="34.7" y="120.190017" style="fill: #262626; stroke: #262626; stroke-width: 1.25"/>
      </g>
     </g>
     <g id="text_5">
      <!-- 15 -->
      <g style="fill: #262626" transform="translate(12.965938 124.126814) scale(0.11 -0.11)">
       <use xlink:href="#ArialMT-31"/>
       <use xlink:href="#ArialMT-35" transform="translate(55.615234 0)"/>
      </g>
     </g>
    </g>
    <g id="ytick_5">
     <g id="line2d_6">
      <g>
       <use xlink:href="#mf24cca0db9" x="34.7" y="84.211734" style="fill: #262626; stroke: #262626; stroke-width: 1.25"/>
      </g>
     </g>
     <g id="text_6">
      <!-- 20 -->
      <g style="fill: #262626" transform="translate(12.965938 88.148531) scale(0.11 -0.11)">
       <defs>
        <path id="ArialMT-32" d="M 3222 541 
L 3222 0 
L 194 0 
Q 188 203 259 391 
Q 375 700 629 1000 
Q 884 1300 1366 1694 
Q 2113 2306 2375 2664 
Q 2638 3022 2638 3341 
Q 2638 3675 2398 3904 
Q 2159 4134 1775 4134 
Q 1369 4134 1125 3890 
Q 881 3647 878 3216 
L 300 3275 
Q 359 3922 746 4261 
Q 1134 4600 1788 4600 
Q 2447 4600 2831 4234 
Q 3216 3869 3216 3328 
Q 3216 3053 3103 2787 
Q 2991 2522 2730 2228 
Q 2469 1934 1863 1422 
Q 1356 997 1212 845 
Q 1069 694 975 541 
L 3222 541 
z
" transform="scale(0.015625)"/>
       </defs>
       <use xlink:href="#ArialMT-32"/>
       <use xlink:href="#ArialMT-30" transform="translate(55.615234 0)"/>
      </g>
     </g>
    </g>
    <g id="ytick_6">
     <g id="line2d_7">
      <g>
       <use xlink:href="#mf24cca0db9" x="34.7" y="48.23345" style="fill: #262626; stroke: #262626; stroke-width: 1.25"/>
      </g>
     </g>
     <g id="text_7">
      <!-- 25 -->
      <g style="fill: #262626" transform="translate(12.965938 52.170247) scale(0.11 -0.11)">
       <use xlink:href="#ArialMT-32"/>
       <use xlink:href="#ArialMT-35" transform="translate(55.615234 0)"/>
      </g>
     </g>
    </g>
   </g>
   <g id="FillBetweenPolyCollection_1">
    <defs>
     <path id="m7ccd943e6d" d="M 551.460805 -42.351818 
L 550.279195 -42.351818 
L 543.070279 -44.334004 
L 516.726307 -46.316189 
L 462.413754 -48.298375 
L 358.392369 -50.28056 
L 248.869476 -52.262746 
L 166.673295 -54.244931 
L 137.934 -56.227117 
L 158.912463 -58.209302 
L 170.806278 -60.191488 
L 162.38104 -62.173673 
L 163.534319 -64.155859 
L 205.520992 -66.138044 
L 285.619598 -68.12023 
L 408.785782 -70.102415 
L 497.194203 -72.084601 
L 536.102572 -74.066786 
L 547.354174 -76.048972 
L 549.766047 -78.031157 
L 550.640858 -80.013343 
L 550.858477 -81.995528 
L 550.862591 -83.977713 
L 550.589482 -85.959899 
L 548.354867 -87.942084 
L 545.337328 -89.92427 
L 547.683559 -91.906455 
L 550.375531 -93.888641 
L 550.850858 -95.870826 
L 550.869835 -97.853012 
L 550.87 -99.835197 
L 550.87 -101.817383 
L 550.87 -103.799568 
L 550.87 -105.781754 
L 550.87 -107.763939 
L 550.87 -109.746125 
L 550.87 -111.72831 
L 550.87 -113.710496 
L 550.87 -115.692681 
L 550.87 -117.674867 
L 550.87 -119.657052 
L 550.87 -121.639238 
L 550.87 -123.621423 
L 550.87 -125.603609 
L 550.87 -127.585794 
L 550.87 -129.56798 
L 550.87 -131.550165 
L 550.87 -133.532351 
L 550.87 -135.514536 
L 550.87 -137.496722 
L 550.87 -139.478907 
L 550.87 -141.461093 
L 550.87 -143.443278 
L 550.87 -145.425464 
L 550.87 -147.407649 
L 550.87 -149.389835 
L 550.87 -151.37202 
L 550.87 -153.354206 
L 550.87 -155.336391 
L 550.87 -157.318577 
L 550.87 -159.300762 
L 550.87 -161.282948 
L 550.87 -163.265133 
L 550.87 -165.247319 
L 550.87 -167.229504 
L 550.87 -169.21169 
L 550.87 -171.193875 
L 550.87 -173.176061 
L 550.87 -175.158246 
L 550.87 -177.140432 
L 550.87 -179.122617 
L 550.87 -181.104803 
L 550.87 -183.086988 
L 550.87 -185.069174 
L 550.87 -187.051359 
L 550.87 -189.033545 
L 550.87 -191.01573 
L 550.87 -192.997916 
L 550.87 -194.980101 
L 550.87 -196.962287 
L 550.87 -198.944472 
L 550.87 -200.926657 
L 550.87 -202.908843 
L 550.87 -204.891028 
L 550.87 -206.873214 
L 550.87 -208.855399 
L 550.87 -210.837585 
L 550.87 -212.81977 
L 550.87 -214.801956 
L 550.87 -216.784141 
L 550.87 -218.766327 
L 550.87 -220.748512 
L 550.87 -222.730698 
L 550.87 -224.712883 
L 550.87 -226.695069 
L 550.869952 -228.677254 
L 550.863692 -230.65944 
L 550.712881 -232.641625 
L 550.120956 -234.623811 
L 550.186519 -236.605996 
L 550.750632 -238.588182 
L 550.989368 -238.588182 
L 550.989368 -238.588182 
L 551.553481 -236.605996 
L 551.619044 -234.623811 
L 551.027119 -232.641625 
L 550.876308 -230.65944 
L 550.870048 -228.677254 
L 550.87 -226.695069 
L 550.87 -224.712883 
L 550.87 -222.730698 
L 550.87 -220.748512 
L 550.87 -218.766327 
L 550.87 -216.784141 
L 550.87 -214.801956 
L 550.87 -212.81977 
L 550.87 -210.837585 
L 550.87 -208.855399 
L 550.87 -206.873214 
L 550.87 -204.891028 
L 550.87 -202.908843 
L 550.87 -200.926657 
L 550.87 -198.944472 
L 550.87 -196.962287 
L 550.87 -194.980101 
L 550.87 -192.997916 
L 550.87 -191.01573 
L 550.87 -189.033545 
L 550.87 -187.051359 
L 550.87 -185.069174 
L 550.87 -183.086988 
L 550.87 -181.104803 
L 550.87 -179.122617 
L 550.87 -177.140432 
L 550.87 -175.158246 
L 550.87 -173.176061 
L 550.87 -171.193875 
L 550.87 -169.21169 
L 550.87 -167.229504 
L 550.87 -165.247319 
L 550.87 -163.265133 
L 550.87 -161.282948 
L 550.87 -159.300762 
L 550.87 -157.318577 
L 550.87 -155.336391 
L 550.87 -153.354206 
L 550.87 -151.37202 
L 550.87 -149.389835 
L 550.87 -147.407649 
L 550.87 -145.425464 
L 550.87 -143.443278 
L 550.87 -141.461093 
L 550.87 -139.478907 
L 550.87 -137.496722 
L 550.87 -135.514536 
L 550.87 -133.532351 
L 550.87 -131.550165 
L 550.87 -129.56798 
L 550.87 -127.585794 
L 550.87 -125.603609 
L 550.87 -123.621423 
L 550.87 -121.639238 
L 550.87 -119.657052 
L 550.87 -117.674867 
L 550.87 -115.692681 
L 550.87 -113.710496 
L 550.87 -111.72831 
L 550.87 -109.746125 
L 550.87 -107.763939 
L 550.87 -105.781754 
L 550.87 -103.799568 
L 550.87 -101.817383 
L 550.87 -99.835197 
L 550.870165 -97.853012 
L 550.889142 -95.870826 
L 551.364469 -93.888641 
L 554.056441 -91.906455 
L 556.402672 -89.92427 
L 553.385133 -87.942084 
L 551.150518 -85.959899 
L 550.877409 -83.977713 
L 550.881523 -81.995528 
L 551.099142 -80.013343 
L 551.973953 -78.031157 
L 554.385826 -76.048972 
L 565.637428 -74.066786 
L 604.545797 -72.084601 
L 692.954218 -70.102415 
L 816.120402 -68.12023 
L 896.219008 -66.138044 
L 938.205681 -64.155859 
L 939.35896 -62.173673 
L 930.933722 -60.191488 
L 942.827537 -58.209302 
L 963.806 -56.227117 
L 935.066705 -54.244931 
L 852.870524 -52.262746 
L 743.347631 -50.28056 
L 639.326246 -48.298375 
L 585.013693 -46.316189 
L 558.669721 -44.334004 
L 551.460805 -42.351818 
z
" style="stroke: #4c4c4c; stroke-width: 3"/>
    </defs>
    <g clip-path="url(#p1584b57bb3)">
     <use xlink:href="#m7ccd943e6d" x="0" y="288" style="fill: #cb3335; stroke: #4c4c4c; stroke-width: 3"/>
    </g>
   </g>
   <g id="line2d_8">
    <path d="M 550.87 242.56509 
L 550.87 210.549046 
" clip-path="url(#p1584b57bb3)" style="fill: none; stroke: #4c4c4c; stroke-width: 4.5; stroke-linecap: round"/>
   </g>
   <g id="line2d_9">
    <path d="M 550.87 232.968337 
L 550.87 223.472775 
" clip-path="url(#p1584b57bb3)" style="fill: none; stroke: #4c4c4c; stroke-width: 13.5; stroke-linecap: round"/>
   </g>
   <g id="line2d_10">
    <path d="M 550.87 228.372341 
" clip-path="url(#p1584b57bb3)" style="fill: none; stroke: #4c4c4c; stroke-width: 1.5; stroke-linecap: round"/>
    <defs>
     <path id="m3746905d99" d="M 5.625 0 
L -5.625 -0 
" style="stroke: #ffffff; stroke-width: 2.7"/>
    </defs>
    <g clip-path="url(#p1584b57bb3)">
     <use xlink:href="#m3746905d99" x="550.87" y="228.372341" style="fill: #ffffff; stroke: #ffffff; stroke-width: 2.7"/>
    </g>
   </g>
   <g id="patch_3">
    <path d="M 34.7 255.46 
L 34.7 39.6 
" style="fill: none; stroke: #262626; stroke-width: 1.25; stroke-linejoin: miter; stroke-linecap: square"/>
   </g>
   <g id="patch_4">
    <path d="M 1067.04 255.46 
L 1067.04 39.6 
" style="fill: none; stroke: #262626; stroke-width: 1.25; stroke-linejoin: miter; stroke-linecap: square"/>
   </g>
   <g id="patch_5">
    <path d="M 34.7 255.46 
L 1067.04 255.46 
" style="fill: none; stroke: #262626; stroke-width: 1.25; stroke-linejoin: miter; stroke-linecap: square"/>
   </g>
   <g id="patch_6">
    <path d="M 34.7 39.6 
L 1067.04 39.6 
" style="fill: none; stroke: #262626; stroke-width: 1.25; stroke-linejoin: miter; stroke-linecap: square"/>
   </g>
  </g>
  <g id="text_8">
   <!-- Violin Plot of all Continuous Variables -->
   <g style="fill: #262626" transform="translate(416.035547 16.496719) scale(0.15 -0.15)">
    <defs>
     <path id="ArialMT-56" d="M 1803 0 
L 28 4581 
L 684 4581 
L 1875 1253 
Q 2019 853 2116 503 
Q 2222 878 2363 1253 
L 3600 4581 
L 4219 4581 
L 2425 0 
L 1803 0 
z
" transform="scale(0.015625)"/>
     <path id="ArialMT-69" d="M 425 3934 
L 425 4581 
L 988 4581 
L 988 3934 
L 425 3934 
z
M 425 0 
L 425 3319 
L 988 3319 
L 988 0 
L 425 0 
z
" transform="scale(0.015625)"/>
     <path id="ArialMT-6c" d="M 409 0 
L 409 4581 
L 972 4581 
L 972 0 
L 409 0 
z
" transform="scale(0.015625)"/>
     <path id="ArialMT-20" transform="scale(0.015625)"/>
     <path id="ArialMT-50" d="M 494 0 
L 494 4581 
L 2222 4581 
Q 2678 4581 2919 4538 
Q 3256 4481 3484 4323 
Q 3713 4166 3852 3881 
Q 3991 3597 3991 3256 
Q 3991 2672 3619 2267 
Q 3247 1863 2275 1863 
L 1100 1863 
L 1100 0 
L 494 0 
z
M 1100 2403 
L 2284 2403 
Q 2872 2403 3119 2622 
Q 3366 2841 3366 3238 
Q 3366 3525 3220 3729 
Q 3075 3934 2838 4000 
Q 2684 4041 2272 4041 
L 1100 4041 
L 1100 2403 
z
" transform="scale(0.015625)"/>
     <path id="ArialMT-74" d="M 1650 503 
L 1731 6 
Q 1494 -44 1306 -44 
Q 1000 -44 831 53 
Q 663 150 594 308 
Q 525 466 525 972 
L 525 2881 
L 113 2881 
L 113 3319 
L 525 3319 
L 525 4141 
L 1084 4478 
L 1084 3319 
L 1650 3319 
L 1650 2881 
L 1084 2881 
L 1084 941 
Q 1084 700 1114 631 
Q 1144 563 1211 522 
Q 1278 481 1403 481 
Q 1497 481 1650 503 
z
" transform="scale(0.015625)"/>
     <path id="ArialMT-66" d="M 556 0 
L 556 2881 
L 59 2881 
L 59 3319 
L 556 3319 
L 556 3672 
Q 556 4006 616 4169 
Q 697 4388 901 4523 
Q 1106 4659 1475 4659 
Q 1713 4659 2000 4603 
L 1916 4113 
Q 1741 4144 1584 4144 
Q 1328 4144 1222 4034 
Q 1116 3925 1116 3625 
L 1116 3319 
L 1763 3319 
L 1763 2881 
L 1116 2881 
L 1116 0 
L 556 0 
z
" transform="scale(0.015625)"/>
     <path id="ArialMT-61" d="M 2588 409 
Q 2275 144 1986 34 
Q 1697 -75 1366 -75 
Q 819 -75 525 192 
Q 231 459 231 875 
Q 231 1119 342 1320 
Q 453 1522 633 1644 
Q 813 1766 1038 1828 
Q 1203 1872 1538 1913 
Q 2219 1994 2541 2106 
Q 2544 2222 2544 2253 
Q 2544 2597 2384 2738 
Q 2169 2928 1744 2928 
Q 1347 2928 1158 2789 
Q 969 2650 878 2297 
L 328 2372 
Q 403 2725 575 2942 
Q 747 3159 1072 3276 
Q 1397 3394 1825 3394 
Q 2250 3394 2515 3294 
Q 2781 3194 2906 3042 
Q 3031 2891 3081 2659 
Q 3109 2516 3109 2141 
L 3109 1391 
Q 3109 606 3145 398 
Q 3181 191 3288 0 
L 2700 0 
Q 2613 175 2588 409 
z
M 2541 1666 
Q 2234 1541 1622 1453 
Q 1275 1403 1131 1340 
Q 988 1278 909 1158 
Q 831 1038 831 891 
Q 831 666 1001 516 
Q 1172 366 1500 366 
Q 1825 366 2078 508 
Q 2331 650 2450 897 
Q 2541 1088 2541 1459 
L 2541 1666 
z
" transform="scale(0.015625)"/>
     <path id="ArialMT-43" d="M 3763 1606 
L 4369 1453 
Q 4178 706 3683 314 
Q 3188 -78 2472 -78 
Q 1731 -78 1267 223 
Q 803 525 561 1097 
Q 319 1669 319 2325 
Q 319 3041 592 3573 
Q 866 4106 1370 4382 
Q 1875 4659 2481 4659 
Q 3169 4659 3637 4309 
Q 4106 3959 4291 3325 
L 3694 3184 
Q 3534 3684 3231 3912 
Q 2928 4141 2469 4141 
Q 1941 4141 1586 3887 
Q 1231 3634 1087 3207 
Q 944 2781 944 2328 
Q 944 1744 1114 1308 
Q 1284 872 1643 656 
Q 2003 441 2422 441 
Q 2931 441 3284 734 
Q 3638 1028 3763 1606 
z
" transform="scale(0.015625)"/>
     <path id="ArialMT-75" d="M 2597 0 
L 2597 488 
Q 2209 -75 1544 -75 
Q 1250 -75 995 37 
Q 741 150 617 320 
Q 494 491 444 738 
Q 409 903 409 1263 
L 409 3319 
L 972 3319 
L 972 1478 
Q 972 1038 1006 884 
Q 1059 663 1231 536 
Q 1403 409 1656 409 
Q 1909 409 2131 539 
Q 2353 669 2445 892 
Q 2538 1116 2538 1541 
L 2538 3319 
L 3100 3319 
L 3100 0 
L 2597 0 
z
" transform="scale(0.015625)"/>
     <path id="ArialMT-73" d="M 197 991 
L 753 1078 
Q 800 744 1014 566 
Q 1228 388 1613 388 
Q 2000 388 2187 545 
Q 2375 703 2375 916 
Q 2375 1106 2209 1216 
Q 2094 1291 1634 1406 
Q 1016 1563 777 1677 
Q 538 1791 414 1992 
Q 291 2194 291 2438 
Q 291 2659 392 2848 
Q 494 3038 669 3163 
Q 800 3259 1026 3326 
Q 1253 3394 1513 3394 
Q 1903 3394 2198 3281 
Q 2494 3169 2634 2976 
Q 2775 2784 2828 2463 
L 2278 2388 
Q 2241 2644 2061 2787 
Q 1881 2931 1553 2931 
Q 1166 2931 1000 2803 
Q 834 2675 834 2503 
Q 834 2394 903 2306 
Q 972 2216 1119 2156 
Q 1203 2125 1616 2013 
Q 2213 1853 2448 1751 
Q 2684 1650 2818 1456 
Q 2953 1263 2953 975 
Q 2953 694 2789 445 
Q 2625 197 2315 61 
Q 2006 -75 1616 -75 
Q 969 -75 630 194 
Q 291 463 197 991 
z
" transform="scale(0.015625)"/>
     <path id="ArialMT-72" d="M 416 0 
L 416 3319 
L 922 3319 
L 922 2816 
Q 1116 3169 1280 3281 
Q 1444 3394 1641 3394 
Q 1925 3394 2219 3213 
L 2025 2691 
Q 1819 2813 1613 2813 
Q 1428 2813 1281 2702 
Q 1134 2591 1072 2394 
Q 978 2094 978 1738 
L 978 0 
L 416 0 
z
" transform="scale(0.015625)"/>
     <path id="ArialMT-62" d="M 941 0 
L 419 0 
L 419 4581 
L 981 4581 
L 981 2947 
Q 1338 3394 1891 3394 
Q 2197 3394 2470 3270 
Q 2744 3147 2920 2923 
Q 3097 2700 3197 2384 
Q 3297 2069 3297 1709 
Q 3297 856 2875 390 
Q 2453 -75 1863 -75 
Q 1275 -75 941 416 
L 941 0 
z
M 934 1684 
Q 934 1088 1097 822 
Q 1363 388 1816 388 
Q 2184 388 2453 708 
Q 2722 1028 2722 1663 
Q 2722 2313 2464 2622 
Q 2206 2931 1841 2931 
Q 1472 2931 1203 2611 
Q 934 2291 934 1684 
z
" transform="scale(0.015625)"/>
    </defs>
    <use xlink:href="#ArialMT-56"/>
    <use xlink:href="#ArialMT-69" transform="translate(64.949219 0)"/>
    <use xlink:href="#ArialMT-6f" transform="translate(87.166016 0)"/>
    <use xlink:href="#ArialMT-6c" transform="translate(142.78125 0)"/>
    <use xlink:href="#ArialMT-69" transform="translate(164.998047 0)"/>
    <use xlink:href="#ArialMT-6e" transform="translate(187.214844 0)"/>
    <use xlink:href="#ArialMT-20" transform="translate(242.830078 0)"/>
    <use xlink:href="#ArialMT-50" transform="translate(270.613281 0)"/>
    <use xlink:href="#ArialMT-6c" transform="translate(337.3125 0)"/>
    <use xlink:href="#ArialMT-6f" transform="translate(359.529297 0)"/>
    <use xlink:href="#ArialMT-74" transform="translate(415.144531 0)"/>
    <use xlink:href="#ArialMT-20" transform="translate(442.927734 0)"/>
    <use xlink:href="#ArialMT-6f" transform="translate(470.710938 0)"/>
    <use xlink:href="#ArialMT-66" transform="translate(526.326172 0)"/>
    <use xlink:href="#ArialMT-20" transform="translate(554.109375 0)"/>
    <use xlink:href="#ArialMT-61" transform="translate(581.892578 0)"/>
    <use xlink:href="#ArialMT-6c" transform="translate(637.507812 0)"/>
    <use xlink:href="#ArialMT-6c" transform="translate(659.724609 0)"/>
    <use xlink:href="#ArialMT-20" transform="translate(681.941406 0)"/>
    <use xlink:href="#ArialMT-43" transform="translate(709.724609 0)"/>
    <use xlink:href="#ArialMT-6f" transform="translate(781.941406 0)"/>
    <use xlink:href="#ArialMT-6e" transform="translate(837.556641 0)"/>
    <use xlink:href="#ArialMT-74" transform="translate(893.171875 0)"/>
    <use xlink:href="#ArialMT-69" transform="translate(920.955078 0)"/>
    <use xlink:href="#ArialMT-6e" transform="translate(943.171875 0)"/>
    <use xlink:href="#ArialMT-75" transform="translate(998.787109 0)"/>
    <use xlink:href="#ArialMT-6f" transform="translate(1054.402344 0)"/>
    <use xlink:href="#ArialMT-75" transform="translate(1110.017578 0)"/>
    <use xlink:href="#ArialMT-73" transform="translate(1165.632812 0)"/>
    <use xlink:href="#ArialMT-20" transform="translate(1215.632812 0)"/>
    <use xlink:href="#ArialMT-56" transform="translate(1243.416016 0)"/>
    <use xlink:href="#ArialMT-61" transform="translate(1302.740234 0)"/>
    <use xlink:href="#ArialMT-72" transform="translate(1358.355469 0)"/>
    <use xlink:href="#ArialMT-69" transform="translate(1391.65625 0)"/>
    <use xlink:href="#ArialMT-61" transform="translate(1413.873047 0)"/>
    <use xlink:href="#ArialMT-62" transform="translate(1469.488281 0)"/>
    <use xlink:href="#ArialMT-6c" transform="translate(1525.103516 0)"/>
    <use xlink:href="#ArialMT-65" transform="translate(1547.320312 0)"/>
    <use xlink:href="#ArialMT-73" transform="translate(1602.935547 0)"/>
   </g>
  </g>
 </g>
 <defs>
  <clipPath id="p1584b57bb3">
   <rect x="34.7" y="39.6" width="1032.34" height="215.86"/>
  </clipPath>
 </defs>
</svg>
